HIERARCHY
ROOT root
{
	OFFSET	0	13.1	24.9
	CHANNELS 6  Xposition Yposition Zposition Xrotation Yrotation Zrotation
	JOINT spine_1
	{
		OFFSET	0	9.99999	0
		CHANNELS 3  Xrotation Yrotation Zrotation
		JOINT spine_2
		{
			OFFSET	0	112	-10
			CHANNELS 3  Xrotation Yrotation Zrotation
			JOINT spine_3
			{
				OFFSET	0	206.5	19.3
				CHANNELS 3  Xrotation Yrotation Zrotation
				JOINT spine_4
				{
					OFFSET	0	110.4	14.6
					CHANNELS 3  Xrotation Yrotation Zrotation
					JOINT neck_1
					{
						OFFSET	0	71.8	-50.3
						CHANNELS 3  Xrotation Yrotation Zrotation
						JOINT neck_2
						{
							OFFSET	0	86.2	-25.8
							CHANNELS 3  Xrotation Yrotation Zrotation
							JOINT head_ee
							{
								OFFSET	0	179.8	-8.7
								CHANNELS 3  Xrotation Yrotation Zrotation
								End Site
								{
									OFFSET	1	0	0
								}
							}
						}
					}
					JOINT left_clavicle
					{
						OFFSET	-43.2	22.4	-70.8
						CHANNELS 3  Xrotation Yrotation Zrotation
						JOINT left_shoulder
						{
							OFFSET	-93.9	-5.79999	48.7
							CHANNELS 3  Xrotation Yrotation Zrotation
							JOINT left_elbow
							{
								OFFSET	-291.4	-30.8	15.2
								CHANNELS 3  Xrotation Yrotation Zrotation
								JOINT left_lowarm_twist
								{
									OFFSET	-110.7	-3.89999	13.6
									CHANNELS 3  Xrotation Yrotation Zrotation
									JOINT left_hand
									{
										OFFSET	-110.7	-3.89999	13.6
										CHANNELS 3  Xrotation Yrotation Zrotation
										JOINT left_ee
										{
											OFFSET	-80.8	-5.10001	12.1
											CHANNELS 3  Xrotation Yrotation Zrotation
											End Site
											{
												OFFSET	1	0	0
											}
										}
									}
								}
							}
						}
					}
					JOINT right_clavicle
					{
						OFFSET	43.2	22.4	-70.8
						CHANNELS 3  Xrotation Yrotation Zrotation
						JOINT right_shoulder
						{
							OFFSET	93.9	-5.79999	48.7
							CHANNELS 3  Xrotation Yrotation Zrotation
							JOINT right_elbow
							{
								OFFSET	291.4	-30.8	15.2
								CHANNELS 3  Xrotation Yrotation Zrotation
								JOINT right_lowarm_twist
								{
									OFFSET	110.7	-3.89999	13.6
									CHANNELS 3  Xrotation Yrotation Zrotation
									JOINT right_hand
									{
										OFFSET	110.7	-3.89999	13.6
										CHANNELS 3  Xrotation Yrotation Zrotation
										JOINT right_ee
										{
											OFFSET	80.8	-5.10001	12.1
											CHANNELS 3  Xrotation Yrotation Zrotation
											End Site
											{
												OFFSET	1	0	0
											}
										}
									}
								}
							}
						}
					}
				}
			}
		}
	}
	JOINT left_hip
	{
		OFFSET	-82.8	-127.5	0.300001
		CHANNELS 3  Xrotation Yrotation Zrotation
		JOINT left_knee
		{
			OFFSET	-28.2	-396.7	2.2
			CHANNELS 3  Xrotation Yrotation Zrotation
			JOINT left_ankle
			{
				OFFSET	-11.7	-411.3	35.4
				CHANNELS 3  Xrotation Yrotation Zrotation
				JOINT left_toes
				{
					OFFSET	0	-60	-88.6
					CHANNELS 3  Xrotation Yrotation Zrotation
					JOINT left_foot_ee
					{
						OFFSET	-22.5	-16.5	-42.2
						CHANNELS 3  Xrotation Yrotation Zrotation
						End Site
						{
							OFFSET	1	0	0
						}
					}
				}
			}
		}
	}
	JOINT right_hip
	{
		OFFSET	82.8	-127.5	0.300001
		CHANNELS 3  Xrotation Yrotation Zrotation
		JOINT right_knee
		{
			OFFSET	28.2	-396.7	2.2
			CHANNELS 3  Xrotation Yrotation Zrotation
			JOINT right_ankle
			{
				OFFSET	11.7	-411.3	35.4
				CHANNELS 3  Xrotation Yrotation Zrotation
				JOINT right_toes
				{
					OFFSET	0	-60	-88.6
					CHANNELS 3  Xrotation Yrotation Zrotation
					JOINT right_foot_ee
					{
						OFFSET	22.5	-16.5	-42.2
						CHANNELS 3  Xrotation Yrotation Zrotation
						End Site
						{
							OFFSET	1	0	0
						}
					}
				}
			}
		}
	}
}
MOTION
Frames: 16
Frame Time: 0.02
1757.84 742.292 -505.162 165.306 -60.5592 166.796 -2.46512 0.293422 -0.302622 -2.46512 0.312084 -0.283338 -2.46675 0.373427 -0.195521 -2.46664 0.337862 -0.252043 -20.1001 16.3825 14.3071 -20.3618 24.454 20.142 -0.0 0.0 -0.0 3.1699 24.8365 7.08741 -17.8881 -14.6807 68.6062 0.439994 -12.2961 0.0473954 -22.1632 -1.2832 2.50896 0.817295 14.3718 11.0451 -0.0 0.0 -0.0 12.0722 27.6115 -23.3542 -17.6006 53.4304 -34.4969 0.889788 23.7864 -0.187401 1.54244 -0.0517869 0.190189 2.72208 -17.0068 -24.3547 0.0 0.0 0.0 18.2833 7.81358 -6.98509 -58.9277 -2.08532 8.40625 -15.4415 -8.18384 2.4202 -19.3599 0.0 0.0 -0.0 0.0 -0.0 10.6091 23.2899 -9.10124 -22.1144 -0.264529 -3.3623 -4.09129 21.0242 -0.694631 -15.4611 0.0 0.0 0.0 0.0 0.0 
1778.79 742.923 -505.315 164.343 -61.5896 165.501 -2.42051 0.296722 -0.236498 -2.42054 0.31117 -0.217137 -2.4218 0.355752 -0.131969 -2.42167 0.330445 -0.186498 -20.3872 16.078 13.9531 -20.6752 24.1156 19.7717 -0.0 0.0 -0.0 3.19964 24.5137 7.12315 -19.6918 -13.8231 68.9317 0.438221 -12.248 0.0470183 -21.7795 -1.25297 2.47021 0.811289 15.3716 11.3685 -0.0 0.0 -0.0 12.0949 27.446 -23.4265 -17.2454 53.5611 -32.9395 0.946966 25.1308 -0.211076 1.07972 -0.03679 0.132991 2.58878 -17.587 -23.6155 0.0 0.0 0.0 20.6914 5.83378 -6.88009 -56.6188 -1.84615 8.1425 -15.953 -8.19009 2.50143 -21.1373 0.0 0.0 -0.0 0.0 -0.0 9.03421 22.9768 -8.125 -23.2424 -0.243064 -3.53405 -3.15477 21.7454 -0.538352 -15.3854 0.0 0.0 0.0 0.0 0.0 
1795.57 741.437 -508.948 165.249 -63.3345 165.974 -2.1439 0.0466775 -0.128499 -2.14389 0.0547596 -0.125268 -2.14401 0.0839603 -0.107895 -2.14402 0.0658665 -0.119801 -20.9914 14.8316 10.8354 -21.5061 23.359 16.5947 -0.0 0.0 -0.0 3.11066 23.4091 6.98403 -22.5531 -13.0373 69.1227 0.586601 -16.2032 0.0835033 -20.0442 -1.11948 2.29248 0.814834 15.2841 11.3595 -0.0 0.0 -0.0 11.8798 25.7237 -23.1377 -16.6023 53.9091 -32.2074 1.05219 27.5289 -0.257757 1.23155 -0.0417617 0.151745 2.27535 -13.6489 -20.3179 0.0 0.0 0.0 21.9979 7.93746 -8.59727 -54.0792 -1.59569 7.8417 -14.5206 -7.71262 2.2685 -23.2208 0.0 0.0 -0.0 0.0 -0.0 7.79096 26.5738 -7.59476 -21.7526 -0.270698 -3.30712 -0.306649 17.2601 -0.0498332 -13.4797 0.0 0.0 0.0 0.0 0.0 
1811.94 739.228 -508.623 164.451 -65.0546 165.143 -1.87328 -0.109691 -0.119548 -1.87328 -0.101861 -0.126286 -1.87304 -0.0682697 -0.147184 -1.87306 -0.0906579 -0.134555 -21.7132 14.3896 10.8387 -22.218 22.6444 16.5735 -0.0 0.0 -0.0 2.96999 23.8096 6.79831 -23.6861 -12.9641 68.8859 0.566595 -15.6782 0.0780087 -18.1775 -0.982 2.09693 1.61269 12.8683 15.6527 -0.0 0.0 -0.0 11.9303 25.3609 -23.2928 -16.0172 53.8429 -31.7148 1.02637 26.9496 -0.245938 -0.501057 0.0179237 -0.0614788 2.01601 -15.6117 -19.2115 0.0 0.0 0.0 22.1809 8.23335 -8.10948 -51.8359 -1.3858 7.56711 -10.2071 -5.53623 1.57034 -22.953 0.0 0.0 -0.0 0.0 -0.0 7.74998 25.8451 -7.54668 -23.7267 -0.232808 -3.60767 0.321877 18.4612 0.0527611 -13.1392 0.0 0.0 0.0 0.0 0.0 
1824.33 740.25 -509.388 164.568 -65.3913 164.728 -1.66748 -0.0300485 -0.197959 -1.66745 -0.017391 -0.19947 -1.66737 0.0306915 -0.19786 -1.66743 -0.000941933 -0.200224 -23.9089 14.1922 12.9011 -24.3253 21.7838 18.8937 -0.0 0.0 -0.0 2.99326 23.2261 6.81768 -24.6516 -12.1476 69.2452 0.557056 -15.427 0.075451 -20.9954 -1.19198 2.3904 1.07804 18.1239 14.0055 -0.0 0.0 -0.0 12.8196 22.4579 -25.6276 -14.4553 52.3969 -30.321 1.16836 30.0601 -0.313729 -0.86236 0.0311817 -0.105713 1.79747 -10.1151 -15.9191 0.0 0.0 0.0 21.4274 5.67593 -6.59815 -34.6407 -0.161472 5.23368 -12.9803 -5.30208 2.00172 -29.4907 0.0 0.0 -0.0 0.0 -0.0 6.41243 25.6386 -6.91499 -23.1265 -0.245424 -3.51643 3.31727 17.2257 0.533261 -15.1929 0.0 0.0 0.0 0.0 0.0 
1841.43 733.723 -511.22 164.553 -66.266 164.542 -1.4727 0.00826437 -0.20033 -1.47268 0.0209952 -0.199399 -1.47273 0.0673116 -0.188864 -1.47278 0.0366393 -0.197125 -25.0399 13.3611 12.384 -25.4605 20.6235 18.2923 -0.0 0.0 -0.0 2.84127 23.1087 6.60373 -26.1658 -12.1067 69.0406 0.621834 -17.121 0.0936059 -20.934 -1.18725 2.38411 1.06295 19.5375 14.3833 -0.0 0.0 -0.0 12.5651 22.2307 -25.0587 -11.0891 51.715 -32.1501 1.2302 31.3571 -0.34531 -2.6084 0.0991766 -0.318276 1.03494 -10.8105 -11.1403 0.0 0.0 0.0 20.772 6.06867 -7.1635 -25.4757 0.190603 3.87274 -17.2245 -4.69371 2.65868 -32.6157 0.0 0.0 -0.0 0.0 -0.0 5.82937 25.1103 -6.13328 -24.9953 -0.203003 -3.80005 7.71688 15.2562 1.20316 -16.3723 0.0 0.0 0.0 0.0 0.0 
1860.45 734.501 -510.435 163.684 -65.2263 163.472 -1.47506 0.14025 -0.169058 -1.47505 0.150723 -0.15979 -1.47549 0.184088 -0.119842 -1.47547 0.162851 -0.147411 -25.7524 14.0335 13.3862 -26.2325 21.6614 19.7588 -0.0 0.0 -0.0 2.91596 23.1545 6.70869 -26.9623 -12.0746 69.2827 0.581142 -16.0602 0.0819863 -19.6914 -1.09301 2.25587 1.54718 19.8766 17.5139 -0.0 0.0 -0.0 12.7563 20.1242 -25.6702 -11.6185 53.0134 -31.8464 1.35259 33.8216 -0.411243 -1.8409 0.0684899 -0.225093 0.978867 -6.50633 -9.14033 0.0 0.0 0.0 20.4659 5.82139 -8.77579 -18.7954 0.308028 2.85495 -20.1116 2.91181 3.03908 -36.3676 0.0 0.0 -0.0 0.0 -0.0 3.51797 23.0626 -4.45133 -25.0538 -0.201526 -3.80891 9.146 18.8965 1.46097 -15.4818 0.0 0.0 0.0 0.0 0.0 
1880.83 737.956 -510.577 165.144 -66.1639 165.148 -1.22372 0.122111 -0.261735 -1.22369 0.138518 -0.253434 -1.22431 0.19332 -0.214578 -1.22434 0.157005 -0.242416 -26.3532 13.1366 13.6899 -26.6798 19.9373 19.6853 -0.0 0.0 -0.0 2.49317 23.1341 6.12127 -26.9742 -11.6229 69.8222 0.631124 -17.3614 0.0963591 -19.7938 -1.10067 2.26651 1.44994 20.3566 17.0519 -0.0 0.0 -0.0 12.4028 18.3179 -24.9697 -9.17383 53.097 -34.2907 1.42058 35.1325 -0.449732 -4.12525 0.163489 -0.501208 1.17166 -7.05836 -10.6294 0.0 0.0 0.0 19.4831 6.35547 -9.463 -12.4854 0.30948 1.88729 -17.1475 -0.438967 2.60767 -35.5829 0.0 0.0 -0.0 0.0 -0.0 3.06286 27.2531 -5.47555 -24.2195 -0.221736 -3.68248 9.32622 15.6149 1.44918 -17.0213 0.0 0.0 0.0 0.0 0.0 
1910.97 729.798 -506.289 167.181 -66.3776 167.686 -0.667954 0.216837 -0.521659 -0.667837 0.249591 -0.506804 -0.670052 0.355701 -0.438889 -0.67021 0.281923 -0.489557 -24.8261 14.2411 13.3077 -25.2774 21.902 19.539 -0.0 0.0 -0.0 2.23092 23.3946 5.76933 -29.9441 -11.8729 69.5815 0.654753 -17.9703 0.10353 -18.4091 -0.998703 2.12143 1.63179 19.6959 17.9925 -0.0 0.0 -0.0 12.5381 16.5302 -25.3743 -7.2666 52.4991 -36.6069 1.47368 36.1278 -0.480667 -4.76173 0.191916 -0.577456 0.284852 -3.80331 -3.47534 0.0 0.0 0.0 20.0553 6.06226 -10.583 -6.14638 0.203828 0.920815 -16.8658 5.606 2.53538 -35.5515 0.0 0.0 -0.0 0.0 -0.0 2.05317 27.2181 -5.55718 -25.1208 -0.199822 -3.81905 14.8731 17.1147 2.28371 -16.0123 0.0 0.0 0.0 0.0 0.0 
1938.94 728.323 -502.785 168.979 -66.8872 170.251 -0.288589 0.23478 -0.552832 -0.288459 0.269481 -0.536773 -0.290999 0.378663 -0.466219 -0.291176 0.300281 -0.52017 -22.0709 15.3277 12.148 -22.6124 23.9243 18.3033 -0.0 0.0 -0.0 2.05571 23.8418 5.54983 -32.5317 -11.6017 68.7365 0.687717 -18.8127 0.113931 -18.144 -0.97959 2.09338 1.60902 19.3319 17.7368 -0.0 0.0 -0.0 11.9502 14.8111 -24.0902 -3.49276 51.4774 -41.8638 1.5219 37.0102 -0.509397 -5.25402 0.214485 -0.636216 -0.183866 0.734937 1.54025 0.0 0.0 0.0 18.7117 6.27487 -10.8551 -0.378029 0.0153812 0.0559735 -17.2416 13.2734 2.59681 -31.4471 0.0 0.0 -0.0 0.0 -0.0 1.51173 27.0796 -6.40073 -25.7433 -0.183433 -3.91318 19.0183 17.8558 2.87835 -16.8933 0.0 0.0 0.0 0.0 0.0 
1960.9 721.928 -501.89 170.445 -66.8457 172.238 0.169532 0.233889 -0.641612 0.169719 0.274242 -0.62543 0.166715 0.397971 -0.55497 0.166415 0.305331 -0.610856 -19.2011 16.6133 11.2295 -19.7814 26.2321 17.2838 -0.0 0.0 -0.0 2.04658 23.992 5.54466 -34.1682 -11.5604 68.1217 0.702605 -19.1905 0.118778 -17.5417 -0.936641 2.02933 1.64728 18.6191 17.7597 -0.0 0.0 -0.0 11.5556 13.8081 -23.2234 -0.772155 50.6372 -45.7333 1.55102 37.5334 -0.527032 -5.75503 0.237971 -0.695816 -0.696971 4.61116 6.66302 0.0 0.0 0.0 17.9001 6.34944 -11.2633 6.32606 -0.311694 -0.919921 -17.2199 19.3003 2.63002 -28.5496 0.0 0.0 -0.0 0.0 -0.0 1.06152 27.0652 -6.90861 -26.3942 -0.165203 -4.0114 23.006 18.5295 3.42535 -17.1676 0.0 0.0 0.0 0.0 0.0 
1982.43 714.088 -503.388 171.735 -67.463 173.833 0.588755 0.216242 -0.700946 0.588991 0.260406 -0.685767 0.585865 0.392425 -0.619752 0.585446 0.289624 -0.673948 -17.5175 17.3456 10.631 -18.0964 27.5817 16.5833 -0.0 0.0 -0.0 2.23315 23.8623 5.79273 -35.307 -11.5048 67.5038 0.689072 -18.8472 0.114368 -17.1198 -0.906961 1.9842 1.68996 18.1532 17.8875 -0.0 0.0 -0.0 11.408 13.159 -22.9065 1.08923 49.9863 -48.5546 1.56317 37.7497 -0.534457 -6.12734 0.255762 -0.739974 -1.05358 7.26972 10.2509 0.0 0.0 0.0 18.0289 5.9796 -12.4013 11.128 -0.615174 -1.59265 -15.9785 22.9346 2.4726 -26.2878 0.0 0.0 -0.0 0.0 -0.0 0.00736532 27.0515 -6.78433 -26.923 -0.14957 -4.09105 25.9761 18.7995 3.80801 -17.3121 0.0 0.0 0.0 0.0 0.0 
2001.67 710.212 -504.698 171.949 -67.2984 173.991 0.741008 0.262511 -0.638 0.741184 0.302576 -0.620004 0.737875 0.419123 -0.547992 0.737606 0.327319 -0.607305 -17.5916 17.6633 9.65946 -18.3307 28.7384 15.8885 -0.0 0.0 -0.0 2.73858 23.9329 6.48485 -36.1908 -11.2432 66.7819 0.642232 -17.6482 0.0997006 -16.9003 -0.89165 1.96063 1.63652 17.8684 17.4561 -0.0 0.0 -0.0 11.1117 12.9717 -22.2441 2.47862 49.6608 -50.5058 1.56357 37.7567 -0.534697 -6.59266 0.278401 -0.795002 -1.30785 9.07852 12.7897 0.0 0.0 0.0 19.7744 5.48906 -13.4454 9.88239 -0.531031 -1.42057 -12.8291 27.0274 2.02148 -24.6041 0.0 0.0 -0.0 0.0 -0.0 -1.56768 26.9458 -6.35729 -26.8985 -0.150311 -4.08736 28.1696 16.814 4.01026 -17.5041 0.0 0.0 0.0 0.0 0.0 
2025.13 705.463 -506.518 173.614 -67.2234 175.965 0.97443 0.252232 -0.647077 0.974616 0.292895 -0.629716 0.971361 0.409268 -0.561098 0.971061 0.315519 -0.618691 -17.4635 17.7947 8.9292 -18.2847 29.3609 15.2622 -0.0 0.0 -0.0 2.91604 23.8537 6.72541 -36.4837 -11.0057 66.2853 0.636697 -17.5054 0.0980289 -16.2647 -0.847826 1.89206 1.66047 16.9205 17.309 -0.0 0.0 -0.0 11.016 12.7873 -22.0338 3.00776 49.4233 -51.3094 1.59685 38.3422 -0.55521 -6.93184 0.295185 -0.834998 -1.50098 10.4791 14.7389 0.0 0.0 0.0 21.4685 5.18722 -13.8207 8.2582 -0.426991 -1.19358 -9.96116 29.55 1.58921 -23.5262 0.0 0.0 -0.0 0.0 -0.0 -2.56532 27.1866 -6.14961 -26.8315 -0.152328 -4.07728 29.6717 16.2659 4.16641 -17.6493 0.0 0.0 0.0 0.0 0.0 
2051.34 701.311 -508.788 175.082 -67.7688 177.959 1.1434 0.162131 -0.751926 1.14369 0.209648 -0.740086 1.14097 0.346934 -0.686527 1.14039 0.234159 -0.7327 -17.1106 18.2225 8.79475 -17.9689 30.1891 15.221 -0.0 0.0 -0.0 3.33201 23.7314 7.29412 -36.4622 -11.0714 65.7205 0.603524 -16.6451 0.0882882 -16.2048 -0.843738 1.88558 1.6089 17.3279 17.1075 -0.0 0.0 -0.0 10.8038 12.5763 -21.5641 3.12029 49.1974 -52.1988 1.58897 38.2046 -0.550333 -6.94308 0.295746 -0.836321 -1.62248 11.3763 15.9757 0.0 0.0 0.0 21.7921 5.14898 -14.0063 7.69066 -0.392164 -1.11359 -7.69361 31.07 1.23667 -22.0645 0.0 0.0 -0.0 0.0 -0.0 -3.2226 27.225 -5.90215 -26.816 -0.152792 -4.07495 30.6828 16.4038 4.28371 -17.494 0.0 0.0 0.0 0.0 0.0 
2073.57 698.334 -514.975 176.031 -67.5674 178.812 1.23386 0.160802 -0.673248 1.23409 0.203316 -0.661652 1.23172 0.32479 -0.611256 1.23127 0.224179 -0.654877 -17.3162 18.2836 8.56455 -18.2353 30.4737 15.1138 -0.0 0.0 -0.0 3.45468 24.2567 7.46658 -36.5873 -11.081 65.8421 0.660221 -18.1106 0.105223 -16.014 -0.830758 1.86489 1.596 16.6572 16.809 -0.0 0.0 -0.0 10.5392 12.4817 -20.977 2.46549 48.8864 -52.4872 1.63061 38.9267 -0.57629 -7.1684 0.307032 -0.862835 -1.66941 12.5675 16.8165 0.0 0.0 0.0 22.4409 4.84266 -13.7961 4.96615 -0.236126 -0.725097 -7.39504 29.9487 1.17887 -21.7324 0.0 0.0 -0.0 0.0 -0.0 -4.54362 27.5062 -5.28026 -27.0783 -0.14484 -4.11442 31.5427 14.3947 4.31889 -17.6563 0.0 0.0 0.0 0.0 0.0 
